<?xml version="1.0" encoding="utf-8"?>
<!-- Generator: Adobe Illustrator 16.0.0, SVG Export Plug-In . SVG Version: 6.00 Build 0)  -->
<!DOCTYPE svg PUBLIC "-//W3C//DTD SVG 1.1//EN" "http://www.w3.org/Graphics/SVG/1.1/DTD/svg11.dtd">
<svg version="1.1" id="Layer_1" xmlns="http://www.w3.org/2000/svg" xmlns:xlink="http://www.w3.org/1999/xlink" x="0px" y="0px"
	 width="128px" height="52px" viewBox="0 0 128 52" enable-background="new 0 0 128 52" xml:space="preserve">
<g>
	<path fill="#2164B0" d="M20.036,32.654c-0.958,0.814-2.026,1.439-3.205,1.875c-1.178,0.436-2.404,0.654-3.679,0.654
		c-0.978,0-1.918-0.127-2.824-0.381c-0.905-0.254-1.751-0.613-2.537-1.078s-1.504-1.021-2.156-1.668
		C4.984,31.41,4.429,30.691,3.969,29.9c-0.46-0.79-0.817-1.641-1.071-2.551c-0.254-0.91-0.381-1.854-0.381-2.831
		c0-0.978,0.127-1.917,0.381-2.817c0.254-0.901,0.611-1.747,1.071-2.537c0.46-0.791,1.016-1.509,1.667-2.156
		c0.652-0.646,1.37-1.2,2.156-1.66c0.786-0.459,1.631-0.816,2.537-1.07c0.906-0.254,1.847-0.381,2.824-0.381
		c1.274,0,2.5,0.218,3.679,0.654c1.179,0.436,2.247,1.062,3.205,1.876l-2.155,3.593c-0.623-0.633-1.342-1.128-2.156-1.488
		s-1.672-0.539-2.572-0.539c-0.901,0-1.747,0.172-2.537,0.518c-0.791,0.345-1.483,0.812-2.077,1.401
		c-0.594,0.589-1.064,1.279-1.408,2.069c-0.345,0.791-0.518,1.636-0.518,2.537c0,0.91,0.172,1.763,0.518,2.558
		c0.344,0.794,0.814,1.489,1.408,2.083c0.594,0.595,1.286,1.064,2.077,1.408c0.79,0.346,1.636,0.518,2.537,0.518
		c0.518,0,1.02-0.063,1.509-0.186c0.489-0.125,0.954-0.297,1.394-0.518v-5.864h3.981V32.654z"/>
	<path fill="#2164B0" d="M28.918,30.973c0.153,0.047,0.306,0.078,0.46,0.092c0.153,0.016,0.307,0.021,0.46,0.021
		c0.383,0,0.752-0.053,1.106-0.156c0.354-0.105,0.688-0.258,0.999-0.453c0.312-0.197,0.589-0.438,0.833-0.719
		c0.245-0.283,0.444-0.598,0.597-0.942l2.875,2.89c-0.364,0.518-0.784,0.982-1.257,1.395c-0.475,0.412-0.987,0.762-1.538,1.049
		c-0.551,0.287-1.13,0.506-1.739,0.654c-0.608,0.148-1.233,0.223-1.875,0.223c-1.083,0-2.101-0.201-3.054-0.604
		s-1.787-0.963-2.5-1.682s-1.277-1.574-1.689-2.566c-0.412-0.992-0.618-2.081-0.618-3.27c0-1.217,0.206-2.329,0.618-3.334
		c0.412-1.006,0.975-1.863,1.689-2.572s1.547-1.26,2.5-1.653c0.954-0.393,1.971-0.589,3.054-0.589c0.642,0,1.27,0.076,1.882,0.23
		c0.614,0.153,1.195,0.373,1.747,0.661c0.551,0.288,1.066,0.64,1.545,1.056c0.479,0.417,0.9,0.884,1.265,1.401L28.918,30.973z
		 M30.93,22.88c-0.183-0.067-0.362-0.11-0.539-0.129c-0.177-0.019-0.362-0.029-0.553-0.029c-0.537,0-1.042,0.098-1.516,0.295
		c-0.475,0.196-0.886,0.477-1.236,0.84c-0.35,0.364-0.625,0.803-0.827,1.315c-0.201,0.513-0.301,1.09-0.301,1.732
		c0,0.145,0.007,0.307,0.021,0.488c0.015,0.183,0.038,0.367,0.072,0.554c0.033,0.187,0.074,0.366,0.122,0.539
		c0.048,0.172,0.11,0.325,0.187,0.46L30.93,22.88z"/>
	<path fill="#2164B0" d="M45.963,34.736c-0.949,0-1.84-0.178-2.673-0.537c-0.834-0.359-1.565-0.854-2.192-1.48
		c-0.627-0.629-1.121-1.359-1.48-2.193c-0.359-0.833-0.539-1.725-0.539-2.672v-4.571h-1.912v-3.909h1.912v-6.151h3.909v6.151h5.95
		v3.909h-5.95v4.571c0,0.411,0.077,0.797,0.23,1.156s0.364,0.673,0.632,0.941c0.269,0.268,0.585,0.482,0.949,0.641
		c0.364,0.158,0.752,0.236,1.164,0.236h2.975v3.908H45.963z"/>
	<path fill="#DC3545" d="M63.324,34.736h-3.952V13.223h3.952V34.736z"/>
	<path fill="#DC3545" d="M72.436,30.973c0.154,0.047,0.307,0.078,0.459,0.092c0.154,0.016,0.309,0.021,0.461,0.021
		c0.383,0,0.752-0.053,1.107-0.156c0.354-0.105,0.686-0.258,0.998-0.453c0.313-0.197,0.59-0.438,0.834-0.719
		c0.244-0.283,0.443-0.598,0.596-0.942l2.875,2.89c-0.365,0.518-0.783,0.982-1.258,1.395s-0.986,0.762-1.537,1.049
		c-0.553,0.287-1.131,0.506-1.74,0.654c-0.607,0.148-1.234,0.223-1.875,0.223c-1.082,0-2.1-0.201-3.055-0.604
		c-0.953-0.402-1.787-0.963-2.5-1.682c-0.715-0.719-1.277-1.574-1.689-2.566c-0.41-0.992-0.617-2.081-0.617-3.27
		c0-1.217,0.207-2.329,0.617-3.334c0.412-1.006,0.975-1.863,1.689-2.572c0.713-0.709,1.547-1.26,2.5-1.653
		c0.955-0.393,1.973-0.589,3.055-0.589c0.641,0,1.27,0.076,1.883,0.23c0.613,0.153,1.195,0.373,1.746,0.661s1.066,0.64,1.545,1.056
		c0.479,0.417,0.9,0.884,1.266,1.401L72.436,30.973z M74.447,22.88c-0.182-0.067-0.361-0.11-0.539-0.129s-0.361-0.029-0.553-0.029
		c-0.537,0-1.041,0.098-1.516,0.295c-0.475,0.196-0.887,0.477-1.236,0.84c-0.35,0.364-0.625,0.803-0.828,1.315
		c-0.199,0.513-0.301,1.09-0.301,1.732c0,0.145,0.008,0.307,0.021,0.488c0.016,0.183,0.039,0.367,0.072,0.554
		s0.074,0.366,0.123,0.539c0.047,0.172,0.109,0.325,0.188,0.46L74.447,22.88z"/>
	<path fill="#DC3545" d="M96.553,34.736h-0.949l-1.525-2.111c-0.371,0.336-0.768,0.648-1.184,0.941
		c-0.418,0.291-0.855,0.545-1.316,0.762c-0.459,0.215-0.932,0.385-1.414,0.51c-0.484,0.125-0.975,0.188-1.473,0.188
		c-1.084,0-2.102-0.182-3.055-0.547c-0.955-0.363-1.787-0.893-2.5-1.588c-0.715-0.695-1.279-1.545-1.689-2.551
		c-0.412-1.007-0.619-2.152-0.619-3.436c0-1.198,0.207-2.297,0.619-3.298c0.41-1.001,0.975-1.861,1.689-2.58
		c0.713-0.719,1.545-1.277,2.5-1.675c0.953-0.397,1.971-0.596,3.055-0.596c0.498,0,0.99,0.062,1.479,0.187
		c0.49,0.125,0.963,0.297,1.422,0.517c0.461,0.22,0.9,0.479,1.316,0.776c0.416,0.297,0.807,0.618,1.17,0.963l1.525-1.825h0.949
		V34.736z M92.6,26.904c0-0.537-0.104-1.056-0.311-1.559c-0.205-0.503-0.484-0.949-0.84-1.337s-0.768-0.699-1.242-0.934
		s-0.98-0.352-1.516-0.352c-0.537,0-1.043,0.091-1.518,0.273s-0.887,0.451-1.236,0.805c-0.35,0.354-0.625,0.793-0.826,1.315
		c-0.201,0.522-0.301,1.119-0.301,1.79c0,0.671,0.1,1.268,0.301,1.789s0.477,0.961,0.826,1.314c0.35,0.355,0.762,0.623,1.236,0.807
		c0.475,0.182,0.98,0.271,1.518,0.271c0.535,0,1.041-0.117,1.516-0.352s0.887-0.547,1.242-0.934c0.355-0.389,0.635-0.834,0.84-1.337
		C92.496,27.961,92.6,27.441,92.6,26.904z"/>
	<path fill="#DC3545" d="M103.465,34.736h-3.924V19.345h0.947l1.295,1.825c0.631-0.575,1.35-1.018,2.156-1.329
		c0.805-0.312,1.637-0.467,2.5-0.467h3.463v3.909h-3.463c-0.412,0-0.801,0.077-1.164,0.23c-0.363,0.154-0.68,0.364-0.949,0.633
		c-0.268,0.268-0.479,0.584-0.633,0.948c-0.152,0.364-0.229,0.752-0.229,1.164V34.736z"/>
	<path fill="#DC3545" d="M115.652,34.736h-3.924V19.345h0.949l1.293,1.495c0.631-0.575,1.346-1.018,2.146-1.33
		c0.801-0.311,1.639-0.467,2.512-0.467c0.938,0,1.824,0.179,2.658,0.539c0.832,0.359,1.561,0.853,2.184,1.48
		s1.111,1.361,1.471,2.199c0.359,0.838,0.541,1.732,0.541,2.681v8.794h-3.924v-8.794c0-0.403-0.076-0.784-0.23-1.143
		c-0.152-0.359-0.363-0.673-0.631-0.941s-0.58-0.479-0.934-0.632c-0.355-0.154-0.734-0.23-1.135-0.23
		c-0.414,0-0.803,0.077-1.166,0.23c-0.363,0.153-0.68,0.364-0.949,0.632c-0.268,0.268-0.479,0.583-0.631,0.941
		c-0.154,0.359-0.23,0.74-0.23,1.143V34.736z"/>
</g>
</svg>
